<svg xmlns="http://www.w3.org/2000/svg" viewBox="0 0 1141.62 423.26"><defs><style>.cls-1{fill:#fff;}</style></defs><g id="Capa_2" data-name="Capa 2"><g id="Capa_1-2" data-name="Capa 1"><path class="cls-1" d="M905.75,165.63c6.4,16.47,19,33.53,27.39,44.81,2,2.67,4.16,5.63,5.58,7.69-9.47,40.68-24.3,79.18-24.45,79.56a11.35,11.35,0,0,0,6,14.48c1.62.72,3.88,1.8,6.62,3.11,3.51,1.67,7,3.33,10.51,4.93-4.42,10.34-8.29,20.05-11.53,28.93a11.34,11.34,0,0,0,6.76,14.54,10.22,10.22,0,0,0,1.54.44,10.83,10.83,0,0,0,1.25.2,11.4,11.4,0,0,0,11.75-7.39c3.11-8.52,6.82-17.84,11.06-27.79,20,7.76,42.54,13.35,51.71-1.66a25.75,25.75,0,0,0,2.25-22.73c-4.7-12.83-19-23.26-42.38-31a11.28,11.28,0,0,0-13.7,5.69c-.49,1-4.33,8.73-9.52,20-2.38-1.09-4.87-2.24-7.47-3.48,5.4-15.1,15.64-45.4,22.64-76.71,1.43-6.39-1.77-10.71-10.32-22.25-7.64-10.32-19.2-25.92-24.53-39.61-10.16-26.12-22.59-75.71,8.31-114.24,26-32.36,83.5-18.28,100.52-13.2,54.94,16.36,81.69,58.87,83.15,83.84,1.71,29.57-19.82,58.31-49.37,66.42,2.63-14.6,2.2-27.65-1.3-38.87-6-19.22-20.46-32.49-43-39.45a65.74,65.74,0,0,0-42.79,1.59c-9.65,3.89-17.09,10.58-20.94,18.86-3.77,8.12-4.12,17.85-1,27.4,11.1,33.78,45.86,51.48,77.74,55-10.47,25.36-14.94,36-27.44,51.91a11.34,11.34,0,1,0,17.83,14c5.35-6.81,20.23-27.4,34.17-66a93.85,93.85,0,0,0,9.81-1.77c41-9.73,71.27-49.41,68.89-90.33-3-52.43-59.9-92.53-99.3-104.26C1021.73,2.12,952.3-14.43,917.49,29c-38,47.42-23.68,106-11.74,136.66m85.13-41.11a43.62,43.62,0,0,1,27.64-1c15.36,4.76,24.26,12.56,28,24.54,2.84,9.11,2.54,20.68-.87,34.46-26.21-1.49-55.5-15.12-63.64-39.89-1.29-3.94-1.29-8,0-10.77s4.68-5.7,8.85-7.38m2.76,187.57s3.26,15.31-27.5-2.44c1.66-3.62,5.08-11.88,6.37-14.6,15.14,6.4,20.5,15.33,21.13,17"/><path class="cls-1" d="M0,92.4l6.65-.74q2.94-.36,5.72-.73a39.9,39.9,0,0,1,5.35-.37,58.13,58.13,0,0,1,10.9,1.1,33.39,33.39,0,0,1,10.71,4.07,23.47,23.47,0,0,1,8.3,8.68q3.33,5.72,3.33,15V298.45h72a42.35,42.35,0,0,1,14.77,2.22,23.11,23.11,0,0,1,9.24,5.9,20.6,20.6,0,0,1,4.61,8.5,36.85,36.85,0,0,1,1.29,9.6q0,3.69-.18,9.23t-.55,5.54H0Z"/><path class="cls-1" d="M272.8,308.05a58.84,58.84,0,0,0,16.31-2,65,65,0,0,0,12.59-5,51.89,51.89,0,0,0,9.64-6.47q4.08-3.49,7.41-6.46A102.56,102.56,0,0,1,328,302.33q4.82,8.69,4.82,14.22,0,8.11-9.23,14.77-7.75,5.91-22,10.15t-33.42,4.25a133.59,133.59,0,0,1-34.16-4.43,75.78,75.78,0,0,1-29.91-15.51Q191,314.7,182.91,296.05T174.79,249q0-23.26,7.2-40.06A80.38,80.38,0,0,1,201.19,181a75.63,75.63,0,0,1,27.14-16.25,95.24,95.24,0,0,1,31-5.17q20.67,0,35.08,6.46a63.88,63.88,0,0,1,23.44,17.36A68.47,68.47,0,0,1,331,208.35,106,106,0,0,1,335,237.89v5.17c0,2-.06,4.06-.18,6.28s-.25,4.37-.37,6.46a38.56,38.56,0,0,1-.55,5H225q1.47,20.31,12.59,33.78T272.8,308.05Zm16.83-75q0-17.72-6.87-28.8t-24.7-11.08q-15.23,0-24.32,10.53t-9.1,29.35Z"/><path class="cls-1" d="M407.44,182a64.58,64.58,0,0,1,5.91-7.33,41.71,41.71,0,0,1,9-7.32,57.45,57.45,0,0,1,11.81-5.5,42.59,42.59,0,0,1,13.85-2.2,66.14,66.14,0,0,1,9.42.73,32.56,32.56,0,0,1,9.23,2.75,17.88,17.88,0,0,1,6.83,5.49,14,14,0,0,1,2.58,8.6q0,8.07-4.06,18.51a150,150,0,0,1-8.12,17.83,54.91,54.91,0,0,0-12.56-7.94,36.48,36.48,0,0,0-14.77-2.77q-11.44,0-19.2,6.67t-7.75,15.92v114H359.44V164.78c1.23-.24,2.7-.49,4.43-.74,1.48-.24,3.19-.43,5.17-.55s4.3-.19,7-.19q11.82,0,20.5,4.58A20.47,20.47,0,0,1,407.44,182Z"/><path class="cls-1" d="M550,339.44H499.75V164.78c1.23-.24,2.69-.49,4.4-.74a51.51,51.51,0,0,1,5.13-.55c2-.12,4.27-.19,7-.19q11.71,0,20.33,4.25t10.82,14.95q6.3-8.49,19.45-15.69t35-7.2q26.29,0,38.9,10.34t16.3,27.32a118.14,118.14,0,0,1,2.4,18.47q.56,10,.56,19.57V339.44H609.79V237.52q0-8.11-.56-15.14a33.55,33.55,0,0,0-3-12,16.93,16.93,0,0,0-7.8-7.75q-5.38-2.77-15.05-2.77-13.74,0-23.59,5.72T550,219.8Z"/><path class="cls-1" d="M755.94,342.55s-6.12,1.26-10.44-2.09a11.71,11.71,0,0,1-3.34-4.18L687.45,172.15a4.8,4.8,0,0,1,3.44-6.2c2.54-.59,5.36-1.11,8.45-1.54a105.86,105.86,0,0,1,14.58-1.11,31.2,31.2,0,0,1,18.28,5.54q7.93,5.53,11.26,17L772,283.32a4.8,4.8,0,0,0,9.23-.07l22.84-83q2.22-7.75,4.8-14.4a40.18,40.18,0,0,1,6.83-11.63,30.22,30.22,0,0,1,24.56-10.9,55.7,55.7,0,0,1,12.56,1.29c2.23.53,4.46,1.16,6.69,1.91a4.81,4.81,0,0,1,3.06,5.95l-60,197.27q-7.39,24-24.56,38.77t-47.08,14.77q-16.26,0-27.14-4.8t-10.89-16.25a28.55,28.55,0,0,1,2.77-11.44,102.36,102.36,0,0,1,5.06-9.85,4.78,4.78,0,0,1,6.34-1.85,48.14,48.14,0,0,0,6.87,2.83,44,44,0,0,0,14,2.22,30.79,30.79,0,0,0,18.83-6.28,27.46,27.46,0,0,0,10.43-15.79C758.77,355,758.21,343.76,755.94,342.55Z"/></g></g></svg>